<svg width="599" height="166" viewBox="0 0 599 166" fill="none" xmlns="http://www.w3.org/2000/svg">
<path d="M64.717 73.7061C63.0945 72.4081 61.0935 67.8651 59.5251 64.1334C56.7668 57.6434 53.3596 56.0209 52.3861 55.6423V64.4579C52.3861 68.5682 54.0627 73.2734 54.0627 73.4897V73.7061H39.8929V73.4897C39.8929 73.2734 41.5695 68.5682 41.5695 64.4579V44.0145C41.5695 39.9041 39.8929 35.1989 39.8929 34.9826V34.7662H59.6873C67.3671 34.7662 72.6672 38.9847 72.6672 44.7716C72.6672 51.0993 67.7457 54.1821 60.2822 54.6688C64.2844 55.3719 67.5294 57.4271 69.7468 60.9965C72.505 65.4313 73.8571 70.2447 77.5888 73.4356V73.7061H64.717ZM55.8474 36.9837H52.3861V53.1545H55.8474C59.6332 53.1545 61.1476 50.234 61.1476 45.3665C61.1476 40.6613 59.6332 36.9837 55.8474 36.9837ZM77.5085 73.4897C78.6983 71.2723 81.078 66.2967 83.1332 60.5098L89.4068 42.7165C90.6507 39.2011 88.3792 35.1448 88.3792 34.9826V34.7662H101.089L112.014 64.0793C113.582 68.2977 115.15 71.2723 116.719 73.4897V73.7061H100.007V73.4897C100.007 73.2193 102.008 68.2977 100.44 64.0793L99.1417 60.5639H86.0536L85.4587 62.2404C83.7281 67.2702 86.8649 73.1652 86.8649 73.4356V73.7061H77.5085V73.4897ZM87.0271 57.8597H98.1142L92.4354 42.5001L87.0271 57.8597ZM133.311 74.3551C130.012 74.3551 124.496 73.7061 118.384 71.3805V60.8343H118.817C122.981 64.566 129.201 71.4886 134.663 71.4886C136.881 71.4886 139.369 70.1366 139.369 66.9457C139.369 62.5649 134.609 60.7261 128.931 58.4546C123.36 56.2372 117.519 53.3708 117.519 46.7186C117.519 40.445 122.819 34.2254 133.311 34.2254C138.287 34.2254 143.857 35.7938 147.211 36.8755V47.3676H146.886C143.154 44.2849 137.097 36.9837 131.689 36.9837C128.606 36.9837 127.092 39.147 127.092 41.148C127.092 45.0961 132.879 46.5564 138.287 48.9901C147.914 53.3167 149.212 58.7791 149.212 62.1323C149.212 70.4611 141.37 74.3551 133.311 74.3551ZM165.926 73.4897V73.7061H151.756V73.4897C151.756 73.2734 153.433 68.5682 153.433 64.4579V44.0145C153.433 39.9041 151.756 35.1989 151.756 34.9826V34.7662H165.926V34.9826C165.926 35.1989 164.249 39.9041 164.249 44.0145V52.9382H176.202V44.0145C176.202 39.9041 174.525 35.1989 174.525 34.9826V34.7662H188.695V34.9826C188.695 35.1989 187.018 39.9041 187.018 44.0145V64.4579C187.018 68.5682 188.695 73.2734 188.695 73.4897V73.7061H174.525V73.4897C174.525 73.2734 176.202 68.5682 176.202 64.4579V55.6423H164.249V64.4579C164.249 68.5682 165.926 73.2734 165.926 73.4897ZM190.692 73.4897C191.882 71.2723 194.262 66.2967 196.317 60.5098L202.59 42.7165C203.834 39.2011 201.563 35.1448 201.563 34.9826V34.7662H214.272L225.197 64.0793C226.766 68.2977 228.334 71.2723 229.902 73.4897V73.7061H213.191V73.4897C213.191 73.2193 215.192 68.2977 213.623 64.0793L212.325 60.5639H199.237L198.642 62.2404C196.912 67.2702 200.048 73.1652 200.048 73.4356V73.7061H190.692V73.4897ZM200.211 57.8597H211.298L205.619 42.5001L200.211 57.8597ZM231.772 34.9826V34.7662H248.808C259.516 34.7662 267.899 42.3379 267.899 54.1821C267.899 66.3508 259.516 73.7061 248.808 73.7061H231.772V73.4897C231.772 73.2734 233.448 68.5682 233.448 64.4579V44.0145C233.448 39.9041 231.772 35.1989 231.772 34.9826ZM245.509 37.2H244.265V71.2182H245.509C253.405 71.2182 255.839 62.4568 255.839 54.1821C255.839 46.2319 253.405 37.2 245.509 37.2ZM307.193 73.7061C305.57 72.4081 303.569 67.8651 302.001 64.1334C299.243 57.6434 295.836 56.0209 294.862 55.6423V64.4579C294.862 68.5682 296.539 73.2734 296.539 73.4897V73.7061H282.369V73.4897C282.369 73.2734 284.045 68.5682 284.045 64.4579V44.0145C284.045 39.9041 282.369 35.1989 282.369 34.9826V34.7662H302.163C309.843 34.7662 315.143 38.9847 315.143 44.7716C315.143 51.0993 310.222 54.1821 302.758 54.6688C306.76 55.3719 310.005 57.4271 312.223 60.9965C314.981 65.4313 316.333 70.2447 320.065 73.4356V73.7061H307.193ZM298.323 36.9837H294.862V53.1545H298.323C302.109 53.1545 303.623 50.234 303.623 45.3665C303.623 40.6613 302.109 36.9837 298.323 36.9837ZM336.99 74.301C326.173 74.301 317.898 66.4048 317.898 54.2362C317.898 42.0675 326.173 34.2254 336.99 34.2254C347.752 34.2254 356.081 42.1215 356.081 54.2362C356.081 66.4048 347.752 74.301 336.99 74.301ZM336.99 71.8131C342.182 71.8131 344.021 60.7802 344.021 54.128C344.021 47.5298 342.182 36.7132 336.99 36.7132C331.798 36.7132 329.959 47.7462 329.959 54.3443C329.959 60.9965 331.798 71.8131 336.99 71.8131ZM358.951 34.9826V34.7662H378.367C386.047 34.7662 391.293 39.2551 391.293 45.0961C391.293 50.1799 387.237 52.6677 383.126 53.9117C388.102 54.9933 393.132 57.6434 393.132 63.6466C393.132 70.5152 386.588 73.7061 379.449 73.7061H358.951V73.4897C358.951 73.2734 360.628 68.5682 360.628 64.4579V44.0145C360.628 39.9041 358.951 35.1989 358.951 34.9826ZM374.527 52.83C378.313 52.83 380.044 48.1788 380.044 45.0961C380.044 41.9593 378.313 37.4163 374.527 37.4163H371.444V52.83H374.527ZM375.609 71.056C379.936 71.056 381.937 68.1896 381.937 63.4844C381.937 59.5363 380.476 55.426 375.609 55.426H371.444V71.056H375.609ZM409.936 73.4897V73.7061H395.766V73.4897C395.766 73.2734 397.443 68.5682 397.443 64.4579V44.0145C397.443 39.9041 395.766 35.1989 395.766 34.9826V34.7662H409.936V34.9826C409.936 35.1989 408.259 39.9041 408.259 44.0145V64.4579C408.259 68.5682 409.936 73.2734 409.936 73.4897ZM440.868 73.7061L419.776 42.8246V59.8067C419.776 65.9722 423.129 73.0571 423.129 73.3816V73.7061H413.664V73.3816C413.664 73.0571 417.017 65.9722 417.017 59.8067V44.0145C417.017 39.9041 414.53 35.1989 414.53 34.9826V34.7662H427.51L444.87 60.4557V48.6115C444.87 42.446 441.517 35.4152 441.517 35.0907V34.7662H450.982V35.0907C450.982 35.4152 447.629 42.446 447.629 48.6115V73.7061H440.868ZM469.429 74.3551C466.13 74.3551 460.614 73.7061 454.502 71.3805V60.8343H454.935C459.099 64.566 465.319 71.4886 470.781 71.4886C472.999 71.4886 475.486 70.1366 475.486 66.9457C475.486 62.5649 470.727 60.7261 465.048 58.4546C459.478 56.2372 453.637 53.3708 453.637 46.7186C453.637 40.445 458.937 34.2254 469.429 34.2254C474.405 34.2254 479.975 35.7938 483.328 36.8755V47.3676H483.004C479.272 44.2849 473.215 36.9837 467.807 36.9837C464.724 36.9837 463.21 39.147 463.21 41.148C463.21 45.0961 468.996 46.5564 474.405 48.9901C484.031 53.3167 485.329 58.7791 485.329 62.1323C485.329 70.4611 477.487 74.3551 469.429 74.3551ZM506.475 74.301C495.658 74.301 487.383 66.4048 487.383 54.2362C487.383 42.0675 495.658 34.2254 506.475 34.2254C517.237 34.2254 525.566 42.1215 525.566 54.2362C525.566 66.4048 517.237 74.301 506.475 74.301ZM506.475 71.8131C511.667 71.8131 513.505 60.7802 513.505 54.128C513.505 47.5298 511.667 36.7132 506.475 36.7132C501.283 36.7132 499.444 47.7462 499.444 54.3443C499.444 60.9965 501.283 71.8131 506.475 71.8131ZM554.686 73.7061L533.593 42.8246V59.8067C533.593 65.9722 536.946 73.0571 536.946 73.3816V73.7061H527.482V73.3816C527.482 73.0571 530.835 65.9722 530.835 59.8067V44.0145C530.835 39.9041 528.347 35.1989 528.347 34.9826V34.7662H541.327L558.688 60.4557V48.6115C558.688 42.446 555.335 35.4152 555.335 35.0907V34.7662H564.799V35.0907C564.799 35.4152 561.446 42.446 561.446 48.6115V73.7061H554.686Z" fill="#1A1A1A"/>
<path d="M38.1082 131.784C39.2979 129.566 41.6774 124.591 43.7325 118.804L50.0058 101.012C51.2496 97.497 48.9782 93.441 48.9782 93.2787V93.0624H61.687L72.6112 122.374C74.1795 126.592 75.7478 129.566 77.3162 131.784V132H60.6054V131.784C60.6054 131.513 62.6064 126.592 61.0381 122.374L59.7402 118.859H46.6528L46.0579 120.535C44.3274 125.564 47.464 131.459 47.464 131.73V132H38.1082V131.784ZM47.6262 116.155H58.7126L53.0342 100.796L47.6262 116.155ZM79.1853 93.2787V93.0624H96.2205C106.928 93.0624 115.311 100.634 115.311 112.477C115.311 124.645 106.928 132 96.2205 132H79.1853V131.784C79.1853 131.567 80.8618 126.862 80.8618 122.752V102.31C80.8618 98.2 79.1853 93.495 79.1853 93.2787ZM92.9216 95.496H91.6778V129.512H92.9216C100.817 129.512 103.251 120.751 103.251 112.477C103.251 104.527 100.817 95.496 92.9216 95.496ZM118.544 102.689C116.921 98.4704 113.839 93.5491 113.839 93.3328V93.0624H130.712V93.2787C130.712 93.5491 128.603 98.4704 130.225 102.689L138.499 124.429L145.53 104.527C147.314 99.4979 144.664 93.6032 144.664 93.3328V93.0624H153.588V93.2787C153.588 93.6032 149.91 100.471 147.855 106.258L138.716 132H129.846L118.544 102.689ZM169.776 131.784V132H155.608V131.784C155.608 131.567 157.284 126.862 157.284 122.752V102.31C157.284 98.2 155.608 93.495 155.608 93.2787V93.0624H169.776V93.2787C169.776 93.495 168.1 98.2 168.1 102.31V122.752C168.1 126.862 169.776 131.567 169.776 131.784ZM188.653 132.649C185.354 132.649 179.838 132 173.727 129.675V119.129H174.16C178.324 122.86 184.543 129.783 190.005 129.783C192.223 129.783 194.71 128.431 194.71 125.24C194.71 120.86 189.951 119.021 184.273 116.749C178.703 114.532 172.862 111.666 172.862 105.014C172.862 98.7408 178.162 92.5216 188.653 92.5216C193.629 92.5216 199.199 94.0899 202.552 95.1715V105.663H202.227C198.496 102.58 192.439 95.2797 187.031 95.2797C183.948 95.2797 182.434 97.4429 182.434 99.4438C182.434 103.392 188.221 104.852 193.629 107.285C203.255 111.612 204.553 117.074 204.553 120.427C204.553 128.755 196.711 132.649 188.653 132.649ZM225.697 132.595C214.881 132.595 206.607 124.699 206.607 112.531C206.607 100.363 214.881 92.5216 225.697 92.5216C236.459 92.5216 244.787 100.417 244.787 112.531C244.787 124.699 236.459 132.595 225.697 132.595ZM225.697 130.107C230.889 130.107 232.727 119.075 232.727 112.423C232.727 105.825 230.889 95.0093 225.697 95.0093C220.505 95.0093 218.667 106.042 218.667 112.639C218.667 119.291 220.505 130.107 225.697 130.107ZM272.48 132C270.857 130.702 268.857 126.159 267.288 122.428C264.53 115.938 261.123 114.316 260.15 113.937V122.752C260.15 126.862 261.826 131.567 261.826 131.784V132H247.657V131.784C247.657 131.567 249.334 126.862 249.334 122.752V102.31C249.334 98.2 247.657 93.495 247.657 93.2787V93.0624H267.45C275.13 93.0624 280.43 97.2806 280.43 103.067C280.43 109.395 275.508 112.477 268.045 112.964C272.047 113.667 275.292 115.722 277.509 119.291C280.267 123.726 281.619 128.539 285.351 131.73V132H272.48ZM263.611 95.2797H260.15V111.45H263.611C267.396 111.45 268.911 108.529 268.911 103.662C268.911 98.9571 267.396 95.2797 263.611 95.2797ZM301.25 132.649C297.951 132.649 292.435 132 286.324 129.675V119.129H286.756C290.92 122.86 297.14 129.783 302.602 129.783C304.819 129.783 307.307 128.431 307.307 125.24C307.307 120.86 302.548 119.021 296.869 116.749C291.299 114.532 285.458 111.666 285.458 105.014C285.458 98.7408 290.758 92.5216 301.25 92.5216C306.225 92.5216 311.795 94.0899 315.148 95.1715V105.663H314.824C311.092 102.58 305.035 95.2797 299.627 95.2797C296.545 95.2797 295.03 97.4429 295.03 99.4438C295.03 103.392 300.817 104.852 306.225 107.285C315.851 111.612 317.149 117.074 317.149 120.427C317.149 128.755 309.308 132.649 301.25 132.649Z" fill="#68C485"/>
</svg>
